<?xml version="1.0" encoding="utf-8"?>
<!-- Generator: Adobe Illustrator 13.0.0, SVG Export Plug-In  -->
<!DOCTYPE svg PUBLIC "-//W3C//DTD SVG 1.1//EN" "http://www.w3.org/Graphics/SVG/1.1/DTD/svg11.dtd" [
	<!ENTITY ns_flows "http://ns.adobe.com/Flows/1.0/">
]>
<svg version="1.1"
	 xmlns="http://www.w3.org/2000/svg" xmlns:xlink="http://www.w3.org/1999/xlink" xmlns:a="http://ns.adobe.com/AdobeSVGViewerExtensions/3.0/"
	 x="0px" y="0px" width="96px" height="96px" viewBox="0 0 96 96" enable-background="new 0 0 96 96" xml:space="preserve">
<defs>
</defs>
<rect fill="none" width="96" height="96"/>
<g id="INDIVIDUAL_BACKGROUND_2_">
	<defs>
		<path id="CLIPPING_PATH__x28_MASK_x29__4_" d="M88.949,48.025C88.949,78.381,78.332,89,47.975,89S7,78.381,7,48.025
			C7,17.669,17.617,7.051,47.975,7.051S88.949,17.669,88.949,48.025z"/>
	</defs>
	
		<linearGradient id="CLIPPING_PATH__x28_MASK_x29__5_" gradientUnits="userSpaceOnUse" x1="47.9751" y1="89" x2="47.9751" y2="7.0513">
		<stop  offset="0" style="stop-color:#D00A80"/>
		<stop  offset="1" style="stop-color:#E916C2"/>
	</linearGradient>
	<use xlink:href="#CLIPPING_PATH__x28_MASK_x29__4_"  overflow="visible" fill="url(#CLIPPING_PATH__x28_MASK_x29__5_)"/>
	<clipPath id="CLIPPING_PATH__x28_MASK_x29__6_">
		<use xlink:href="#CLIPPING_PATH__x28_MASK_x29__4_"  overflow="visible"/>
	</clipPath>
</g>
<linearGradient id="SVGID_1_" gradientUnits="userSpaceOnUse" x1="52.8135" y1="43.8223" x2="52.8135" y2="7.0508">
	<stop  offset="0" style="stop-color:#00286E"/>
	<stop  offset="0.85" style="stop-color:#003FAD"/>
</linearGradient>
<path fill="url(#SVGID_1_)" d="M87.428,31.269C83.55,13.645,71.892,7.051,47.983,7.051c-13.642,0-23.286,2.154-29.783,7.27
	C21.453,33.273,36.1,43.822,56.563,43.822c-13.133-7.179-13.834-19.961-13.834-19.961S52.186,38.57,72.15,38.57
	c-10.508-4.203-13.66-15.76-13.66-15.76S71.724,36.027,87.428,31.269z"/>
<circle fill="#BC118D" cx="34.316" cy="62.734" r="8.404"/>
<circle fill="#FFFFFF" cx="34.317" cy="62.734" r="7.354"/>
<path fill="#002A73" d="M35.367,61.684c0,1.737-1.412,3.152-3.152,3.152s-3.152-1.415-3.152-3.152c0-1.738,1.412-3.152,3.152-3.152
	S35.367,59.945,35.367,61.684z"/>
<circle fill="#BC118D" cx="61.633" cy="62.734" r="8.406"/>
<circle fill="#FFFFFF" cx="61.633" cy="62.734" r="7.355"/>
<path fill="#002A73" d="M62.684,61.684c0,1.737-1.41,3.152-3.152,3.152c-1.738,0-3.152-1.415-3.152-3.152
	c0-1.738,1.414-3.152,3.152-3.152C61.273,58.531,62.684,59.945,62.684,61.684z"/>
<g opacity="0.25">
	<g>
		<path fill="#FFFFFF" d="M47.975,7.051C17.617,7.051,7,17.669,7,48.025C7,78.381,17.617,89,47.975,89s40.975-10.619,40.975-40.975
			C88.949,17.669,78.332,7.051,47.975,7.051z M47.974,87.949c-29.848,0-39.922-10.073-39.922-39.924
			c0-29.85,10.075-39.923,39.922-39.923c29.851,0,39.924,10.073,39.924,39.923C87.898,77.876,77.825,87.949,47.974,87.949z"/>
	</g>
</g>
</svg>
